<svg width="149" height="82" viewBox="0 0 149 82" fill="none" xmlns="http://www.w3.org/2000/svg">
<g id="57">
<path id="Vector" d="M66.3775 53.6896C65.9056 54.1044 65.671 54.5175 65.3159 54.6571C53.2684 63.2448 40.7378 70.6011 26.881 74.9485C20.6039 76.912 14.2007 77.779 7.79458 78.2344C6.13395 78.3829 4.35558 78.6694 2.69589 78.9552C2.10342 79.0964 1.3932 79.3756 0.92128 79.7904C0.685792 80.0664 0.453122 80.7539 0.574622 81.1646C0.696123 81.5753 1.29142 81.8456 1.64747 81.8431C17.4286 81.1864 32.8367 78.0629 47.1429 70.0085C54.4731 65.8429 61.6837 61.541 68.5326 56.4184C69.2409 55.8649 70.3044 55.1717 71.0174 55.304C80.2869 57.0239 89.2946 55.1788 97.9369 51.9645C111.315 47.0716 124.451 41.4945 137.708 36.1909C138.537 35.9109 139.484 35.4928 140.672 35.6219C135.033 44.1656 129.275 52.573 123.519 61.2548C124.832 62.3432 125.779 62.0624 126.724 61.37C127.786 60.5397 128.968 59.7085 129.91 58.6046C134.971 52.3969 140.032 46.1891 144.973 39.845C146.032 38.466 146.852 36.8142 147.552 35.1632C148.835 31.8621 147.512 29.2648 144.423 28.7372C138.363 27.8184 132.423 27.036 126.366 26.3916C124.584 26.1295 123.521 26.9598 123.294 28.4703C123.185 29.8429 124.024 31.0718 125.807 31.4711C128.898 32.1358 131.986 32.5262 135.433 33.1885C134.842 33.6041 134.607 33.8801 134.251 34.0197C120.872 38.7754 107.494 43.6683 93.994 48.1505C89.9682 49.5499 85.5797 49.9914 81.4305 50.7058C79.7708 50.9915 77.9887 50.7293 75.8524 50.7439C76.5579 49.7789 77.1466 49.0889 77.6176 48.537C81.6247 44.3942 85.2719 39.7051 88.0837 34.3358C90.5432 29.5177 92.0513 24.4317 91.8932 18.6712C91.7613 16.7516 91.6286 14.6948 91.1407 12.7776C89.0648 4.2867 82.3876 -0.19451 74.6863 1.77874C65.088 4.03934 53.4144 15.2308 53.643 31.2793C53.705 40.3327 57.4311 47.1662 63.9925 52.0598C64.7084 52.6036 65.5429 53.1466 66.3775 53.6896ZM88.5691 18.5568C88.4861 23.7702 87.3293 28.1679 85.2203 32.1605C82.06 38.6296 77.5857 43.8731 72.7516 48.5703C71.691 49.675 70.6228 49.6823 69.3145 49.2797C62.5326 46.8569 57.4916 38.6607 57.6736 30.5658C57.9545 19.5895 65.9479 8.28602 75.3079 5.88988C81.5869 4.20073 86.4773 7.73392 88.069 14.8564C88.3158 16.2265 88.4448 17.7346 88.5691 18.5568Z" fill="url(#paint0_linear_1288_880)"/>
</g>
<defs>
<linearGradient id="paint0_linear_1288_880" x1="0.273875" y1="41.8516" x2="148.095" y2="40.8395" gradientUnits="userSpaceOnUse">
<stop stop-color="#96B8FF"/>
<stop offset="1" stop-color="white"/>
</linearGradient>
</defs>
</svg>
