<svg width="69" height="86" viewBox="0 0 69 86" fill="none" xmlns="http://www.w3.org/2000/svg">
<path d="M60.8113 48.7801C58.2633 49.0018 55.7152 49.1127 53.2251 49.4453C49.5188 49.9996 46.6812 51.8842 44.9439 55.0992C43.7857 57.261 42.7433 59.4783 41.8747 61.8064C39.5583 67.8484 38.1684 74.1675 36.4311 80.3203C36.1995 81.1518 36.1416 82.0941 35.9678 82.9256C35.9099 83.2582 35.852 83.6462 35.6783 83.9234C35.2729 84.7548 34.5201 85.1983 33.6514 85.0874C32.7828 84.9765 32.0879 84.3114 32.0299 83.369C31.972 82.8702 31.972 82.3159 32.0879 81.7615C32.4353 79.6552 32.3195 77.6042 32.0879 75.5533C31.6246 71.5068 30.9876 67.4603 29.6556 63.5802C27.9762 58.9794 25.4282 54.9329 21.4324 51.7734C19.4055 50.1659 17.3208 48.6138 15.236 47.0063C12.0509 44.5673 8.40259 42.9598 4.63843 41.5186C4.05933 41.2969 3.36441 41.2415 2.66949 41.0197C2.2062 40.9089 1.68501 40.798 1.22173 40.5763C0.237258 40.1328 -0.168114 39.1905 0.0635272 38.2482C0.295168 37.3613 1.16382 36.807 2.2062 36.9178C2.95904 36.9733 3.76978 37.1396 4.52261 37.3613C8.80796 38.6362 13.2091 38.359 17.6103 37.971C19.2318 37.8602 20.8533 37.6939 22.4169 37.3613C26.0652 36.5298 28.9028 34.5897 30.5822 31.3193C31.9141 28.7695 32.8407 26.1088 33.4777 23.2818C34.5201 18.9028 35.9678 14.5791 36.5469 10.0892C36.8365 7.81655 37.1839 5.54387 37.4735 3.21577C37.5893 2.60603 37.6472 1.99629 37.821 1.38655C38.1684 0.776806 38.6896 0.277926 39.4424 0.222495C40.1953 0.167064 40.8902 0.555082 41.1218 1.33112C41.4114 2.16258 41.643 3.04948 41.7009 3.93637C41.9905 8.03827 42.28 12.1402 42.5696 16.2975C42.8591 20.0668 43.0329 23.8361 43.4383 27.55C43.7857 30.5987 44.886 33.4811 46.6812 36.0864C48.3027 38.4699 50.5612 39.9665 53.2251 41.0197C54.9624 41.6849 56.6418 42.4055 58.3791 42.9598C59.3056 43.2924 60.348 43.4033 61.3325 43.625C63.2435 44.0684 65.2125 44.4565 67.1235 44.9553C67.9922 45.1771 68.5713 45.7868 68.6292 46.6737C68.745 47.5052 68.2238 48.3366 67.2972 48.6692C66.6602 48.8909 65.9653 49.0572 65.2704 49.0572C63.7647 49.1127 62.2011 49.0572 60.6955 49.0572C60.8113 48.9464 60.8113 48.8355 60.8113 48.7801Z" fill="#FF7D23"/>
</svg>
