<svg width="84" height="89" viewBox="0 0 84 89" fill="none" xmlns="http://www.w3.org/2000/svg">
<path d="M37.1374 60.8572C36.7771 60.8062 36.4834 60.81 36.174 60.7785C31.149 60.3926 26.1157 60.5586 21.106 60.5877C15.8025 60.6205 10.5146 60.6886 5.21155 60.3417C4.12664 60.2747 3.01047 60.1372 1.91393 59.9487C1.46747 59.8937 1.00937 59.7174 0.606171 59.4745C-0.0827871 59.0631 -0.187831 58.3505 0.392458 57.7557C0.702238 57.4074 1.09418 57.1492 1.50176 56.9262C4.59004 55.1346 7.67832 53.3429 10.8331 51.6061C14.6777 49.5212 18.5378 47.4715 22.4645 45.4767C26.2149 43.56 29.93 41.659 33.8679 40.1653C33.9384 40.134 34.0442 40.0871 34.1697 39.9893C34.1544 39.5743 34.1392 39.1593 34.0886 38.7599C33.2426 30.9532 32.796 23.0957 32.5571 15.2305C32.4398 11.0649 32.4949 6.90729 32.5147 2.76529C32.5271 2.12716 32.5747 1.47339 32.6733 0.83921C32.7442 0.428174 32.9325 0.0915758 33.4026 0.00957472C33.8884 -0.0371864 34.1701 0.217411 34.3421 0.605067C34.682 1.46651 35.0219 2.32795 35.2913 3.22067C36.4546 7.17529 37.5473 11.1612 38.7106 15.1158C39.7957 18.8942 40.8965 22.7079 42.0169 26.4706C42.704 28.7807 43.4263 31.0752 44.1134 33.3853C44.5038 34.6461 44.5507 34.7519 45.7967 34.3257C48.4454 33.446 51.1293 32.5507 53.7507 31.5144C59.7302 29.1995 65.6471 26.7436 71.6266 24.4286C74.6515 23.2555 77.7038 22.239 80.7601 21.1364C81.3047 20.9369 81.8962 20.8432 82.4838 20.8357C83.5727 20.8166 84.1555 21.6547 83.661 22.6332C83.3195 23.2907 82.8567 23.96 82.2804 24.4687C80.6337 26.0848 78.9205 27.6461 77.1916 29.1721C72.0796 33.6328 66.592 37.6275 60.9753 41.4264C60.2619 41.9115 59.5642 42.4319 58.8665 42.9523C58.6156 43.1479 58.4 43.3279 58.1648 43.5588C57.0787 44.631 57.1056 45.1673 58.2367 46.0996C58.6515 46.4639 59.1212 46.7616 59.5713 47.1103C64.1977 50.4988 69.0713 53.398 74.0703 56.1994C75.6362 57.0654 77.2021 57.9313 78.7131 58.8637C79.6213 59.3887 80.4746 59.9802 81.3082 60.6227C81.8248 61.0261 82.2513 61.5118 82.572 62.0444C83.182 63.039 82.8558 64.1116 81.7822 64.5457C81.2179 64.796 80.6067 64.9405 79.9839 64.9637C78.9812 64.9868 77.9472 64.9393 76.9328 64.841C69.8831 64.1723 62.9712 62.7676 56.2404 60.4391C54.8818 59.9452 53.5035 59.5022 52.1252 59.0592C51.718 58.9024 51.3068 58.8318 50.8799 58.7259C50.2143 58.5572 49.7205 58.7762 49.3831 59.3477C49.2693 59.5669 49.1046 59.7664 48.9908 59.9856C44.337 68.3341 39.1118 76.3456 34.0705 84.4864C33.4742 85.4257 32.9288 86.3846 32.3325 87.324C32.1285 87.6253 31.9245 87.9267 31.654 88.1732C31.3991 88.455 31.0308 88.5762 30.6236 88.4194C30.2517 88.247 30.0405 87.9611 30.0605 87.5304C30.1238 86.9119 30.1518 86.309 30.266 85.7101C31.0133 82.6372 31.69 79.5956 32.5391 76.5619C33.6161 72.7101 34.8106 68.9327 35.9542 65.1357C36.2647 64.0279 36.5753 62.9202 36.8505 61.828C37.0349 61.5775 37.0509 61.233 37.1374 60.8572Z" fill="#FCBA45"/>
</svg>
