<svg width="32" height="32" viewBox="0 0 32 32" fill="none" xmlns="http://www.w3.org/2000/svg">
<g id="vuesax/bold/wallet-minus">
<g id="wallet-minus">
<path id="Vector" d="M15.9203 2.94664L12.7069 10.4266H9.49359C8.96026 10.4266 8.44026 10.4666 7.93359 10.5733L9.26693 7.37331L9.32026 7.25331L9.40026 7.03998C9.44026 6.94665 9.46693 6.86664 9.50693 6.79998C11.0536 3.21331 12.7869 2.09331 15.9203 2.94664Z" fill="#292D32"/>
<path id="Vector_2" d="M24.9735 10.7867L24.9468 10.7733C24.1468 10.5467 23.3335 10.4267 22.5068 10.4267H14.1602L17.1602 3.45332L17.2002 3.35999C17.3868 3.42665 17.5868 3.51999 17.7868 3.58665L20.7335 4.82665C22.3735 5.50665 23.5202 6.21332 24.2268 7.06665C24.3468 7.22665 24.4535 7.37332 24.5602 7.54665C24.6802 7.73332 24.7735 7.91999 24.8268 8.11999C24.8802 8.23999 24.9202 8.34665 24.9468 8.46665C25.1468 9.14665 25.1602 9.91999 24.9735 10.7867Z" fill="#292D32"/>
<path id="Vector_3" d="M24.3863 12.6933C23.7863 12.52 23.1597 12.4266 22.5063 12.4266H9.493C8.58633 12.4266 7.73299 12.6 6.93299 12.9466C4.61299 13.9466 2.98633 16.2533 2.98633 18.9333V21.5333C2.98633 21.8533 3.01299 22.16 3.05299 22.48C3.34633 26.72 5.61299 28.9866 9.85299 29.2666C10.1597 29.3066 10.4663 29.3333 10.7997 29.3333H21.1997C26.133 29.3333 28.733 26.9866 28.9863 22.32C28.9997 22.0666 29.013 21.8 29.013 21.5333V18.9333C29.013 15.9866 27.053 13.5066 24.3863 12.6933ZM19.333 22.3333H12.6663C12.1197 22.3333 11.6663 21.88 11.6663 21.3333C11.6663 20.7866 12.1197 20.3333 12.6663 20.3333H19.333C19.8797 20.3333 20.333 20.7866 20.333 21.3333C20.333 21.88 19.8797 22.3333 19.333 22.3333Z" fill="#1960F2"/>
</g>
</g>
</svg>
